<?xml version="1.0" encoding="UTF-8" standalone="no" ?>
<!DOCTYPE svg PUBLIC "-//W3C//DTD SVG 1.1//EN" "http://www.w3.org/Graphics/SVG/1.1/DTD/svg11.dtd">
<svg xmlns="http://www.w3.org/2000/svg" xmlns:xlink="http://www.w3.org/1999/xlink" version="1.1" width="697.8500000000001" height="697.8500000000001" viewBox="0 0 697.85 697.85" xml:space="preserve">
<desc>Created with Fabric.js 2.4.6</desc>
<defs>
</defs>
<rect x="0" y="0" width="100%" height="100%" fill="#ffffff"></rect>
<g transform="matrix(1 0 0 1 349.5 349.5)" style=""  >
	<g transform="matrix(2.33 0 0 2.33 0 0)" id="Background"  >
<rect style="stroke: none; stroke-width: 1; stroke-dasharray: none; stroke-linecap: butt; stroke-dashoffset: 0; stroke-linejoin: miter; stroke-miterlimit: 4; fill: rgb(248,249,248); fill-rule: nonzero; opacity: 1;"  x="-150" y="-150" rx="0" ry="0" width="300" height="300" />
</g>
	<g transform="matrix(1 0 0 1 -0.58 -38.03)" style=""  >
	<g transform="matrix(2.33 0 0 2.33 0.27 5.68)" id="innerlogo"  >
<path style="stroke: none; stroke-width: 1; stroke-dasharray: none; stroke-linecap: butt; stroke-dashoffset: 0; stroke-linejoin: miter; stroke-miterlimit: 4; fill: rgb(0,0,0); fill-rule: nonzero; opacity: 1;"  transform=" translate(-150, -136.3)" d="M 99.6 149.4 c 0.7 0.9 0.7 2.2 -0.1 3.1 l 0 0 c -0.9 1 -2.6 1 -3.5 -0.1 c -3.4 -4.1 -5.7 -9.9 -5.7 -16.1 c 0 -5.9 2 -11.5 5.6 -15.9 c 0.9 -1.1 2.5 -1.2 3.5 -0.2 c 0.8 0.8 0.9 2.2 0.2 3.1 c -3 3.6 -4.6 8.2 -4.6 13 C 95 141.4 96.9 146.1 99.6 149.4 z M 84.7 136.2 c 0 -6.7 2.2 -13 6.3 -18.1 c 0.8 -1 0.7 -2.3 -0.2 -3.2 l 0 0 c -1 -0.9 -2.5 -0.8 -3.4 0.2 c -4.7 5.9 -7.3 13.3 -7.3 21.1 c 0 7.9 2.6 15.3 7.5 21.3 c 0.8 1 2.4 1.1 3.4 0.2 l 0 0 c 0.9 -0.8 1 -2.2 0.2 -3.2 C 86.9 149.4 84.7 143 84.7 136.2 z M 203.9 120.2 c -0.9 -1.1 -2.5 -1.1 -3.5 -0.1 l 0 0 c -0.8 0.9 -0.8 2.2 -0.1 3.1 c 2.7 3.3 4.6 8 4.6 13.2 c 0 4.9 -1.6 9.4 -4.6 13 c -0.7 0.9 -0.6 2.2 0.2 3.1 c 1 1 2.6 0.9 3.5 -0.2 c 3.6 -4.4 5.6 -10 5.6 -15.9 C 209.6 130.1 207.3 124.3 203.9 120.2 z M 212.5 115.1 c -0.8 -1 -2.4 -1.1 -3.4 -0.2 l 0 0 c -0.9 0.8 -1 2.2 -0.2 3.2 c 4.1 5.1 6.4 11.5 6.4 18.3 c 0 6.7 -2.2 13 -6.3 18.1 c -0.8 1 -0.7 2.3 0.2 3.2 l 0 0 c 1 0.9 2.5 0.8 3.4 -0.2 c 4.7 -5.9 7.3 -13.3 7.3 -21.1 C 220 128.5 217.3 121.1 212.5 115.1 z" stroke-linecap="round" />
</g>
	<g transform="matrix(2.33 0 0 2.33 0.3 0.2)" id="innerlogo"  >
<path style="stroke: none; stroke-width: 1; stroke-dasharray: none; stroke-linecap: butt; stroke-dashoffset: 0; stroke-linejoin: miter; stroke-miterlimit: 4; fill: rgb(0,0,0); fill-rule: nonzero; opacity: 1;"  transform=" translate(-150.05, -133.9)" d="M 141.3 152.2 c -0.2 -1.9 -1.9 -3.3 -3.8 -3.3 h -10.6 c -1.4 0 -2.6 -1.2 -2.6 -2.6 c 0 -1.4 1.2 -2.6 2.6 -2.6 h 10.7 c 2.2 0 3.9 -1.9 3.7 -4.1 c -0.2 -1.9 -1.9 -3.3 -3.8 -3.3 h -10.6 c -1.4 0 -2.6 -1.2 -2.6 -2.6 c 0 -1.4 1.2 -2.6 2.6 -2.6 h 10.6 c 1.9 0 3.7 -1.4 3.8 -3.3 c 0.2 -2.2 -1.5 -4.1 -3.7 -4.1 h -12 c -0.7 0 -1.3 -0.6 -1.3 -1.3 v -3.5 c 0 -14.2 11.5 -25.7 25.7 -25.7 h 0 c 14.2 0 25.7 11.5 25.7 25.7 v 3.5 c 0 0.7 -0.6 1.3 -1.3 1.3 h -12 c -2.2 0 -3.9 1.9 -3.7 4.1 c 0.2 1.9 1.9 3.3 3.8 3.3 h 10.6 c 1.4 0 2.6 1.2 2.6 2.6 c 0 1.4 -1.2 2.6 -2.6 2.6 h -10.7 c -2.2 0 -3.9 1.9 -3.7 4.1 c 0.2 1.9 1.9 3.3 3.8 3.3 h 10.6 c 1.4 0 2.6 1.2 2.6 2.6 c 0 1.4 -1.2 2.6 -2.6 2.6 h -10.7 c -2.2 0 -3.9 1.9 -3.7 4.1 c 0.2 1.9 1.9 3.3 3.8 3.3 h 11.9 c 0.7 0 1.3 0.6 1.3 1.3 v 4.8 c 0 13.5 -10.9 24.4 -24.4 24.4 H 150 c -14.2 0 -25.7 -11.5 -25.7 -25.7 v -3.5 c 0 -0.7 0.6 -1.3 1.3 -1.3 h 12 C 139.8 156.2 141.5 154.4 141.3 152.2 z M 186.9 122.9 v -4.4 c 0 -20.2 -16 -37.1 -36.2 -37.5 c -20.7 -0.4 -37.6 16.3 -37.6 36.9 v 5.1 c -6.6 0.8 -11.7 6.5 -11.7 13.3 v 0 c 0 7.4 6 13.5 13.5 13.5 l 0 0 c 2.4 0 4.3 -1.9 4.3 -4.3 v -27.6 c 0 -17.3 14.3 -31.3 31.6 -30.9 c 16.9 0.4 30.1 14.6 30.1 31.5 v 27 c 0 2.4 1.9 4.3 4.3 4.3 l 0 0 c 7.4 0 13.5 -6 13.5 -13.5 v 0 C 198.6 129.4 193.5 123.8 186.9 122.9 z" stroke-linecap="round" />
</g>
</g>
	<g transform="matrix(2.33 0 0 2.33 -0.18 140.5)" style=""  >
		<text xml:space="preserve" font-family="'FuturaBT-Medium'" font-size="20" font-style="normal" font-weight="normal" style="stroke: none; stroke-width: 1; stroke-dasharray: none; stroke-linecap: butt; stroke-dashoffset: 0; stroke-linejoin: miter; stroke-miterlimit: 4; fill: rgb(6,0,0); fill-rule: nonzero; opacity: 1; white-space: pre;" ><tspan x="-53.5" y="6.28" >Goat Player</tspan></text>
</g>
	<g transform="matrix(2.33 0 0 2.33 -0.57 181.14)" style=""  >
		<text xml:space="preserve" font-family="'FuturaBT-Medium'" font-size="8.88" font-style="normal" font-weight="normal" style="stroke: none; stroke-width: 1; stroke-dasharray: none; stroke-linecap: butt; stroke-dashoffset: 0; stroke-linejoin: miter; stroke-miterlimit: 4; fill: rgb(196,0,0); fill-rule: nonzero; opacity: 1; white-space: pre;" ></text>
</g>
</g>
</svg>